<svg width="1920" height="291" viewBox="0 0 1920 291" fill="none" xmlns="http://www.w3.org/2000/svg">
<rect x="660.5" y="1.5" width="599" height="139" rx="69.5" fill="#1A3F5A" stroke="black" stroke-width="3"/>
<line x1="1261" y1="63.5" x2="1920" y2="63.5001" stroke="black" stroke-width="3"/>
<line x1="1.31134e-07" y1="63.5" x2="659" y2="63.5001" stroke="black" stroke-width="3"/>
<line x1="1262" y1="81.5" x2="1921" y2="81.5001" stroke="black" stroke-width="3"/>
<line x1="1" y1="81.5" x2="660" y2="81.5001" stroke="black" stroke-width="3"/>
<path d="M740.8 227.25C744.067 227.25 747.017 228.017 749.65 229.55C752.317 231.083 754.4 233.233 755.9 236C757.433 238.733 758.2 241.833 758.2 245.3C758.2 248.767 757.433 251.883 755.9 254.65C754.4 257.383 752.317 259.533 749.65 261.1C747.017 262.633 744.067 263.4 740.8 263.4C737.5 263.4 734.517 262.633 731.85 261.1C729.217 259.533 727.133 257.383 725.6 254.65C724.067 251.883 723.3 248.767 723.3 245.3C723.3 241.833 724.067 238.733 725.6 236C727.133 233.233 729.217 231.083 731.85 229.55C734.517 228.017 737.5 227.25 740.8 227.25ZM740.8 232.55C738.533 232.55 736.517 233.067 734.75 234.1C732.983 235.133 731.6 236.617 730.6 238.55C729.633 240.483 729.15 242.733 729.15 245.3C729.15 247.867 729.633 250.117 730.6 252.05C731.6 253.983 732.983 255.467 734.75 256.5C736.517 257.533 738.533 258.05 740.8 258.05C743.033 258.05 745.017 257.533 746.75 256.5C748.517 255.467 749.883 253.983 750.85 252.05C751.85 250.117 752.35 247.867 752.35 245.3C752.35 242.733 751.85 240.483 750.85 238.55C749.883 236.617 748.517 235.133 746.75 234.1C745.017 233.067 743.033 232.55 740.8 232.55ZM791.852 235.45V263H786.102V257C785.402 259.033 784.185 260.617 782.452 261.75C780.719 262.85 778.702 263.4 776.402 263.4C773.202 263.4 770.635 262.367 768.702 260.3C766.769 258.233 765.802 255.283 765.802 251.45V235.45H771.502V250.85C771.502 253.35 772.135 255.283 773.402 256.65C774.669 257.983 776.402 258.65 778.602 258.65C780.869 258.65 782.685 257.917 784.052 256.45C785.419 254.983 786.102 252.85 786.102 250.05V235.45H791.852ZM806.879 240.85C807.812 239.05 809.145 237.633 810.879 236.6C812.612 235.533 814.612 235 816.879 235V241.2H815.179C812.679 241.2 810.662 241.817 809.129 243.05C807.629 244.25 806.879 246.25 806.879 249.05V263H801.179V235.45H806.879V240.85ZM865.918 227.7V263H860.168V247.15H843.568V263H837.868V227.7H843.568V242.5H860.168V227.7H865.918ZM900.929 247.9C900.929 248.833 900.862 249.65 900.729 250.35H879.529C879.629 253.183 880.412 255.283 881.879 256.65C883.346 258.017 885.162 258.7 887.329 258.7C889.229 258.7 890.829 258.217 892.129 257.25C893.462 256.283 894.279 255 894.579 253.4H900.679C900.312 255.333 899.546 257.05 898.379 258.55C897.212 260.05 895.696 261.233 893.829 262.1C891.962 262.933 889.879 263.35 887.579 263.35C884.912 263.35 882.546 262.783 880.479 261.65C878.446 260.517 876.846 258.883 875.679 256.75C874.512 254.617 873.929 252.1 873.929 249.2C873.929 246.333 874.512 243.833 875.679 241.7C876.846 239.567 878.446 237.933 880.479 236.8C882.546 235.667 884.912 235.1 887.579 235.1C890.279 235.1 892.629 235.667 894.629 236.8C896.662 237.9 898.212 239.433 899.279 241.4C900.379 243.333 900.929 245.5 900.929 247.9ZM895.179 247.75C895.246 245.95 894.929 244.45 894.229 243.25C893.562 242.017 892.629 241.117 891.429 240.55C890.262 239.95 888.979 239.65 887.579 239.65C885.346 239.65 883.479 240.333 881.979 241.7C880.479 243.067 879.662 245.083 879.529 247.75H895.179ZM914.632 240.85C915.566 239.05 916.899 237.633 918.632 236.6C920.366 235.533 922.366 235 924.632 235V241.2H922.932C920.432 241.2 918.416 241.817 916.882 243.05C915.382 244.25 914.632 246.25 914.632 249.05V263H908.932V235.45H914.632V240.85ZM944.003 235.1C946.67 235.1 949.07 235.667 951.203 236.8C953.336 237.933 955.003 239.567 956.203 241.7C957.403 243.833 958.003 246.333 958.003 249.2C958.003 252.1 957.403 254.617 956.203 256.75C955.003 258.883 953.336 260.517 951.203 261.65C949.07 262.783 946.67 263.35 944.003 263.35C941.336 263.35 938.936 262.783 936.803 261.65C934.703 260.517 933.036 258.883 931.803 256.75C930.603 254.583 930.003 252.067 930.003 249.2C930.003 246.333 930.603 243.833 931.803 241.7C933.036 239.567 934.703 237.933 936.803 236.8C938.936 235.667 941.336 235.1 944.003 235.1ZM944.003 240.05C942.536 240.05 941.186 240.383 939.953 241.05C938.72 241.717 937.72 242.75 936.953 244.15C936.22 245.517 935.853 247.2 935.853 249.2C935.853 251.233 936.22 252.933 936.953 254.3C937.72 255.667 938.72 256.683 939.953 257.35C941.186 258.017 942.536 258.35 944.003 258.35C945.47 258.35 946.82 258.017 948.053 257.35C949.286 256.683 950.27 255.667 951.003 254.3C951.77 252.933 952.153 251.233 952.153 249.2C952.153 247.2 951.77 245.517 951.003 244.15C950.27 242.75 949.286 241.717 948.053 241.05C946.82 240.383 945.47 240.05 944.003 240.05ZM995.952 227.35C1000.29 227.35 1003.89 228.45 1006.75 230.65C1009.62 232.85 1011.55 235.833 1012.55 239.6H1006.5C1005.67 237.467 1004.34 235.783 1002.5 234.55C1000.7 233.283 998.485 232.65 995.852 232.65C993.752 232.65 991.869 233.167 990.202 234.2C988.569 235.233 987.269 236.717 986.302 238.65C985.369 240.55 984.902 242.783 984.902 245.35C984.902 247.883 985.369 250.117 986.302 252.05C987.269 253.95 988.569 255.417 990.202 256.45C991.869 257.483 993.752 258 995.852 258C998.485 258 1000.7 257.383 1002.5 256.15C1004.34 254.883 1005.67 253.2 1006.5 251.1H1012.55C1011.55 254.867 1009.62 257.85 1006.75 260.05C1003.89 262.217 1000.29 263.3 995.952 263.3C992.619 263.3 989.669 262.55 987.102 261.05C984.535 259.517 982.552 257.4 981.152 254.7C979.752 251.967 979.052 248.85 979.052 245.35C979.052 241.85 979.752 238.75 981.152 236.05C982.552 233.317 984.535 231.183 987.102 229.65C989.669 228.117 992.619 227.35 995.952 227.35ZM1033.34 235.1C1036.01 235.1 1038.41 235.667 1040.54 236.8C1042.67 237.933 1044.34 239.567 1045.54 241.7C1046.74 243.833 1047.34 246.333 1047.34 249.2C1047.34 252.1 1046.74 254.617 1045.54 256.75C1044.34 258.883 1042.67 260.517 1040.54 261.65C1038.41 262.783 1036.01 263.35 1033.34 263.35C1030.67 263.35 1028.27 262.783 1026.14 261.65C1024.04 260.517 1022.37 258.883 1021.14 256.75C1019.94 254.583 1019.34 252.067 1019.34 249.2C1019.34 246.333 1019.94 243.833 1021.14 241.7C1022.37 239.567 1024.04 237.933 1026.14 236.8C1028.27 235.667 1030.67 235.1 1033.34 235.1ZM1033.34 240.05C1031.87 240.05 1030.52 240.383 1029.29 241.05C1028.06 241.717 1027.06 242.75 1026.29 244.15C1025.56 245.517 1025.19 247.2 1025.19 249.2C1025.19 251.233 1025.56 252.933 1026.29 254.3C1027.06 255.667 1028.06 256.683 1029.29 257.35C1030.52 258.017 1031.87 258.35 1033.34 258.35C1034.81 258.35 1036.16 258.017 1037.39 257.35C1038.62 256.683 1039.61 255.667 1040.34 254.3C1041.11 252.933 1041.49 251.233 1041.49 249.2C1041.49 247.2 1041.11 245.517 1040.34 244.15C1039.61 242.75 1038.62 241.717 1037.39 241.05C1036.16 240.383 1034.81 240.05 1033.34 240.05ZM1080.72 235.45V263H1074.97V257C1074.27 259.033 1073.05 260.617 1071.32 261.75C1069.59 262.85 1067.57 263.4 1065.27 263.4C1062.07 263.4 1059.5 262.367 1057.57 260.3C1055.64 258.233 1054.67 255.283 1054.67 251.45V235.45H1060.37V250.85C1060.37 253.35 1061 255.283 1062.27 256.65C1063.54 257.983 1065.27 258.65 1067.47 258.65C1069.74 258.65 1071.55 257.917 1072.92 256.45C1074.29 254.983 1074.97 252.85 1074.97 250.05V235.45H1080.72ZM1095.75 240.85C1096.68 239.05 1098.01 237.633 1099.75 236.6C1101.48 235.533 1103.48 235 1105.75 235V241.2H1104.05C1101.55 241.2 1099.53 241.817 1098 243.05C1096.5 244.25 1095.75 246.25 1095.75 249.05V263H1090.05V235.45H1095.75V240.85ZM1121.57 235.1C1124.8 235.1 1127.38 235.933 1129.32 237.6C1131.28 239.233 1132.48 241.433 1132.92 244.2H1127.52C1127.28 242.7 1126.63 241.5 1125.57 240.6C1124.53 239.667 1123.15 239.2 1121.42 239.2C1119.98 239.2 1118.87 239.55 1118.07 240.25C1117.3 240.917 1116.92 241.833 1116.92 243C1116.92 243.867 1117.2 244.567 1117.77 245.1C1118.33 245.633 1119.03 246.05 1119.87 246.35C1120.73 246.65 1121.95 246.983 1123.52 247.35C1125.58 247.817 1127.25 248.3 1128.52 248.8C1129.82 249.3 1130.92 250.1 1131.82 251.2C1132.75 252.267 1133.22 253.733 1133.22 255.6C1133.22 257.9 1132.33 259.767 1130.57 261.2C1128.83 262.633 1126.48 263.35 1123.52 263.35C1120.08 263.35 1117.3 262.55 1115.17 260.95C1113.07 259.35 1111.8 257.117 1111.37 254.25H1116.92C1117.08 255.75 1117.75 256.967 1118.92 257.9C1120.08 258.833 1121.62 259.3 1123.52 259.3C1124.88 259.3 1125.95 258.95 1126.72 258.25C1127.52 257.517 1127.92 256.6 1127.92 255.5C1127.92 254.533 1127.62 253.767 1127.02 253.2C1126.42 252.633 1125.67 252.2 1124.77 251.9C1123.87 251.567 1122.63 251.233 1121.07 250.9C1119.07 250.433 1117.43 249.967 1116.17 249.5C1114.93 249.033 1113.87 248.283 1112.97 247.25C1112.1 246.183 1111.67 244.75 1111.67 242.95C1111.67 240.617 1112.53 238.733 1114.27 237.3C1116.03 235.833 1118.47 235.1 1121.57 235.1ZM1167.03 247.9C1167.03 248.833 1166.97 249.65 1166.83 250.35H1145.63C1145.73 253.183 1146.52 255.283 1147.98 256.65C1149.45 258.017 1151.27 258.7 1153.43 258.7C1155.33 258.7 1156.93 258.217 1158.23 257.25C1159.57 256.283 1160.38 255 1160.68 253.4H1166.78C1166.42 255.333 1165.65 257.05 1164.48 258.55C1163.32 260.05 1161.8 261.233 1159.93 262.1C1158.07 262.933 1155.98 263.35 1153.68 263.35C1151.02 263.35 1148.65 262.783 1146.58 261.65C1144.55 260.517 1142.95 258.883 1141.78 256.75C1140.62 254.617 1140.03 252.1 1140.03 249.2C1140.03 246.333 1140.62 243.833 1141.78 241.7C1142.95 239.567 1144.55 237.933 1146.58 236.8C1148.65 235.667 1151.02 235.1 1153.68 235.1C1156.38 235.1 1158.73 235.667 1160.73 236.8C1162.77 237.9 1164.32 239.433 1165.38 241.4C1166.48 243.333 1167.03 245.5 1167.03 247.9ZM1161.28 247.75C1161.35 245.95 1161.03 244.45 1160.33 243.25C1159.67 242.017 1158.73 241.117 1157.53 240.55C1156.37 239.95 1155.08 239.65 1153.68 239.65C1151.45 239.65 1149.58 240.333 1148.08 241.7C1146.58 243.067 1145.77 245.083 1145.63 247.75H1161.28ZM1184.09 235.1C1187.32 235.1 1189.9 235.933 1191.84 237.6C1193.8 239.233 1195 241.433 1195.44 244.2H1190.04C1189.8 242.7 1189.15 241.5 1188.09 240.6C1187.05 239.667 1185.67 239.2 1183.94 239.2C1182.5 239.2 1181.39 239.55 1180.59 240.25C1179.82 240.917 1179.44 241.833 1179.44 243C1179.44 243.867 1179.72 244.567 1180.29 245.1C1180.85 245.633 1181.55 246.05 1182.39 246.35C1183.25 246.65 1184.47 246.983 1186.04 247.35C1188.1 247.817 1189.77 248.3 1191.04 248.8C1192.34 249.3 1193.44 250.1 1194.34 251.2C1195.27 252.267 1195.74 253.733 1195.74 255.6C1195.74 257.9 1194.85 259.767 1193.09 261.2C1191.35 262.633 1189 263.35 1186.04 263.35C1182.6 263.35 1179.82 262.55 1177.69 260.95C1175.59 259.35 1174.32 257.117 1173.89 254.25H1179.44C1179.6 255.75 1180.27 256.967 1181.44 257.9C1182.6 258.833 1184.14 259.3 1186.04 259.3C1187.4 259.3 1188.47 258.95 1189.24 258.25C1190.04 257.517 1190.44 256.6 1190.44 255.5C1190.44 254.533 1190.14 253.767 1189.54 253.2C1188.94 252.633 1188.19 252.2 1187.29 251.9C1186.39 251.567 1185.15 251.233 1183.59 250.9C1181.59 250.433 1179.95 249.967 1178.69 249.5C1177.45 249.033 1176.39 248.283 1175.49 247.25C1174.62 246.183 1174.19 244.75 1174.19 242.95C1174.19 240.617 1175.05 238.733 1176.79 237.3C1178.55 235.833 1180.99 235.1 1184.09 235.1Z" fill="#1A3F5A"/>
<rect x="699.5" y="201.5" width="521" height="89" rx="19.5" stroke="black"/>
<line x1="772.5" y1="140" x2="772.5" y2="201" stroke="black"/>
<line x1="1145.5" y1="140" x2="1145.5" y2="201" stroke="black"/>
<path d="M726.31 71.36C726.31 66.5067 727.36 62.19 729.46 58.41C731.56 54.5833 734.477 51.62 738.21 49.52C741.99 47.3733 746.26 46.3 751.02 46.3C756.853 46.3 761.847 47.84 766 50.92C770.153 54 772.93 58.2 774.33 63.52H761.17C760.19 61.4667 758.79 59.9033 756.97 58.83C755.197 57.7567 753.167 57.22 750.88 57.22C747.193 57.22 744.207 58.5033 741.92 61.07C739.633 63.6367 738.49 67.0667 738.49 71.36C738.49 75.6533 739.633 79.0833 741.92 81.65C744.207 84.2167 747.193 85.5 750.88 85.5C753.167 85.5 755.197 84.9633 756.97 83.89C758.79 82.8167 760.19 81.2533 761.17 79.2H774.33C772.93 84.52 770.153 88.72 766 91.8C761.847 94.8333 756.853 96.35 751.02 96.35C746.26 96.35 741.99 95.3 738.21 93.2C734.477 91.0533 731.56 88.09 729.46 84.31C727.36 80.53 726.31 76.2133 726.31 71.36ZM815.75 87.32H797.41L794.47 96H781.94L799.72 46.86H813.58L831.36 96H818.69L815.75 87.32ZM812.67 78.08L806.58 60.09L800.56 78.08H812.67ZM875.622 46.86V56.45H862.602V96H850.632V56.45H837.612V46.86H875.622ZM897.099 56.45V66.39H913.129V75.63H897.099V86.41H915.229V96H885.129V46.86H915.229V56.45H897.099ZM959.12 62.4C958.233 60.7667 956.95 59.53 955.27 58.69C953.637 57.8033 951.7 57.36 949.46 57.36C945.587 57.36 942.483 58.6433 940.15 61.21C937.817 63.73 936.65 67.1133 936.65 71.36C936.65 75.8867 937.863 79.4333 940.29 82C942.763 84.52 946.147 85.78 950.44 85.78C953.38 85.78 955.853 85.0333 957.86 83.54C959.913 82.0467 961.407 79.9 962.34 77.1H947.15V68.28H973.19V79.41C972.303 82.3967 970.787 85.1733 968.64 87.74C966.54 90.3067 963.857 92.3833 960.59 93.97C957.323 95.5567 953.637 96.35 949.53 96.35C944.677 96.35 940.337 95.3 936.51 93.2C932.73 91.0533 929.767 88.09 927.62 84.31C925.52 80.53 924.47 76.2133 924.47 71.36C924.47 66.5067 925.52 62.19 927.62 58.41C929.767 54.5833 932.73 51.62 936.51 49.52C940.29 47.3733 944.607 46.3 949.46 46.3C955.34 46.3 960.287 47.7233 964.3 50.57C968.36 53.4167 971.043 57.36 972.35 62.4H959.12ZM1006.56 96.49C1001.94 96.49 997.694 95.4167 993.82 93.27C989.994 91.1233 986.937 88.1367 984.65 84.31C982.41 80.4367 981.29 76.0967 981.29 71.29C981.29 66.4833 982.41 62.1667 984.65 58.34C986.937 54.5133 989.994 51.5267 993.82 49.38C997.694 47.2333 1001.94 46.16 1006.56 46.16C1011.18 46.16 1015.4 47.2333 1019.23 49.38C1023.1 51.5267 1026.14 54.5133 1028.33 58.34C1030.57 62.1667 1031.69 66.4833 1031.69 71.29C1031.69 76.0967 1030.57 80.4367 1028.33 84.31C1026.09 88.1367 1023.06 91.1233 1019.23 93.27C1015.4 95.4167 1011.18 96.49 1006.56 96.49ZM1006.56 85.57C1010.48 85.57 1013.61 84.2633 1015.94 81.65C1018.32 79.0367 1019.51 75.5833 1019.51 71.29C1019.51 66.95 1018.32 63.4967 1015.94 60.93C1013.61 58.3167 1010.48 57.01 1006.56 57.01C1002.59 57.01 999.42 58.2933 997.04 60.86C994.707 63.4267 993.54 66.9033 993.54 71.29C993.54 75.63 994.707 79.1067 997.04 81.72C999.42 84.2867 1002.59 85.57 1006.56 85.57ZM1066.91 96L1056.69 77.45H1053.82V96H1041.85V46.86H1061.94C1065.81 46.86 1069.1 47.5367 1071.81 48.89C1074.56 50.2433 1076.62 52.11 1077.97 54.49C1079.32 56.8233 1080 59.4367 1080 62.33C1080 65.5967 1079.07 68.5133 1077.2 71.08C1075.38 73.6467 1072.67 75.4667 1069.08 76.54L1080.42 96H1066.91ZM1053.82 68.98H1061.24C1063.43 68.98 1065.07 68.4433 1066.14 67.37C1067.26 66.2967 1067.82 64.78 1067.82 62.82C1067.82 60.9533 1067.26 59.4833 1066.14 58.41C1065.07 57.3367 1063.43 56.8 1061.24 56.8H1053.82V68.98ZM1102.98 46.86V96H1091.01V46.86H1102.98ZM1127.13 56.45V66.39H1143.16V75.63H1127.13V86.41H1145.26V96H1115.16V46.86H1145.26V56.45H1127.13ZM1174.31 96.49C1170.72 96.49 1167.5 95.9067 1164.65 94.74C1161.8 93.5733 1159.52 91.8467 1157.79 89.56C1156.11 87.2733 1155.22 84.52 1155.13 81.3H1167.87C1168.06 83.12 1168.69 84.52 1169.76 85.5C1170.83 86.4333 1172.23 86.9 1173.96 86.9C1175.73 86.9 1177.13 86.5033 1178.16 85.71C1179.19 84.87 1179.7 83.7267 1179.7 82.28C1179.7 81.0667 1179.28 80.0633 1178.44 79.27C1177.65 78.4767 1176.64 77.8233 1175.43 77.31C1174.26 76.7967 1172.58 76.2133 1170.39 75.56C1167.22 74.58 1164.63 73.6 1162.62 72.62C1160.61 71.64 1158.89 70.1933 1157.44 68.28C1155.99 66.3667 1155.27 63.87 1155.27 60.79C1155.27 56.2167 1156.93 52.6467 1160.24 50.08C1163.55 47.4667 1167.87 46.16 1173.19 46.16C1178.6 46.16 1182.97 47.4667 1186.28 50.08C1189.59 52.6467 1191.37 56.24 1191.6 60.86H1178.65C1178.56 59.2733 1177.97 58.0367 1176.9 57.15C1175.83 56.2167 1174.45 55.75 1172.77 55.75C1171.32 55.75 1170.16 56.1467 1169.27 56.94C1168.38 57.6867 1167.94 58.7833 1167.94 60.23C1167.94 61.8167 1168.69 63.0533 1170.18 63.94C1171.67 64.8267 1174.01 65.7833 1177.18 66.81C1180.35 67.8833 1182.92 68.91 1184.88 69.89C1186.89 70.87 1188.61 72.2933 1190.06 74.16C1191.51 76.0267 1192.23 78.43 1192.23 81.37C1192.23 84.17 1191.51 86.7133 1190.06 89C1188.66 91.2867 1186.61 93.1067 1183.9 94.46C1181.19 95.8133 1178 96.49 1174.31 96.49Z" fill="white"/>
</svg>
