<svg width="60" height="60" viewBox="0 0 60 60" fill="none" xmlns="http://www.w3.org/2000/svg">
<path d="M56.4 30.625C56.4 28.675 56.225 26.8 55.9 25H30V35.6375H44.8C44.1625 39.075 42.225 41.9875 39.3125 43.9375V50.8375H48.2C53.4 46.05 56.4 39 56.4 30.625Z" fill="#4285F4"/>
<path d="M29.9998 57.5C37.4248 57.5 43.6498 55.0375 48.1998 50.8375L39.3123 43.9375C36.8498 45.5875 33.6998 46.5625 29.9998 46.5625C22.8373 46.5625 16.7748 41.725 14.6123 35.225H5.4248V42.35C9.9498 51.3375 19.2498 57.5 29.9998 57.5Z" fill="#34A853"/>
<path d="M14.6125 35.225C14.0625 33.575 13.75 31.8125 13.75 30C13.75 28.1875 14.0625 26.425 14.6125 24.775V17.65H5.425C3.5 21.4822 2.4983 25.7116 2.5 30C2.5 34.4375 3.5625 38.6375 5.425 42.35L14.6125 35.225Z" fill="#FBBC05"/>
<path d="M29.9998 13.4375C34.0373 13.4375 37.6623 14.825 40.5123 17.55L48.3998 9.6625C43.6373 5.225 37.4123 2.5 29.9998 2.5C19.2498 2.5 9.9498 8.6625 5.4248 17.65L14.6123 24.775C16.7748 18.275 22.8373 13.4375 29.9998 13.4375Z" fill="#EA4335"/>
</svg>
