<svg width="486" height="20" viewBox="0 0 486 20" fill="none" xmlns="http://www.w3.org/2000/svg">
<rect x="386" width="100" height="20" rx="10" fill="#E4E4E4"/>
<rect width="429" height="20" rx="10" fill="#0066FF"/>
<path d="M417.163 8.02713L421.909 0L411.368 10.7875L415.783 11.9377L411 20L421.53 9.2125L417.163 8.02713Z" fill="#FDBA0E"/>
<path d="M386.707 6.59912C387.587 6.59912 388.283 6.80225 388.795 7.2085C389.307 7.61051 389.563 8.15007 389.563 8.82715C389.563 9.7793 388.992 10.5368 387.85 11.0996C388.577 11.4635 389.094 11.8465 389.398 12.2485C389.707 12.6506 389.862 13.0991 389.862 13.5942C389.862 14.3602 389.58 14.9738 389.018 15.4351C388.455 15.8963 387.693 16.127 386.732 16.127C385.725 16.127 384.944 15.9111 384.39 15.4795C383.836 15.0479 383.559 14.4364 383.559 13.645C383.559 13.1287 383.702 12.6654 383.99 12.2549C384.282 11.8402 384.758 11.472 385.418 11.1504C384.851 10.8118 384.447 10.4543 384.206 10.0776C383.965 9.70101 383.844 9.27783 383.844 8.80811C383.844 8.13525 384.109 7.59993 384.638 7.20215C385.167 6.80013 385.856 6.59912 386.707 6.59912ZM384.987 13.5942C384.987 14.0343 385.141 14.3771 385.45 14.6226C385.759 14.8638 386.178 14.9844 386.707 14.9844C387.253 14.9844 387.676 14.8595 387.977 14.6099C388.281 14.356 388.434 14.0132 388.434 13.5815C388.434 13.2388 388.294 12.9256 388.015 12.6421C387.735 12.3586 387.312 12.0962 386.745 11.855L386.561 11.7725C386.002 12.0179 385.6 12.2887 385.355 12.585C385.11 12.877 384.987 13.2134 384.987 13.5942ZM386.694 7.74805C386.271 7.74805 385.931 7.85384 385.672 8.06543C385.414 8.27279 385.285 8.55632 385.285 8.91602C385.285 9.13607 385.332 9.33285 385.425 9.50635C385.518 9.67985 385.653 9.83854 385.831 9.98242C386.009 10.1221 386.309 10.2913 386.732 10.4902C387.24 10.266 387.598 10.0311 387.805 9.78564C388.017 9.53597 388.123 9.24609 388.123 8.91602C388.123 8.55632 387.991 8.27279 387.729 8.06543C387.471 7.85384 387.126 7.74805 386.694 7.74805ZM394.146 10.2046C395.082 10.2046 395.822 10.4521 396.368 10.9473C396.914 11.4424 397.187 12.1174 397.187 12.9722C397.187 13.9624 396.876 14.7368 396.254 15.2954C395.636 15.8498 394.756 16.127 393.613 16.127C392.576 16.127 391.762 15.9598 391.169 15.6255V14.2734C391.512 14.4681 391.906 14.6183 392.35 14.7241C392.794 14.8299 393.207 14.8828 393.588 14.8828C394.261 14.8828 394.773 14.7326 395.124 14.4321C395.475 14.1317 395.651 13.6916 395.651 13.1118C395.651 12.0031 394.944 11.4487 393.531 11.4487C393.332 11.4487 393.086 11.4699 392.794 11.5122C392.502 11.5503 392.246 11.5947 392.026 11.6455L391.36 11.252L391.715 6.71973H396.54V8.04639H393.029L392.82 10.3442C392.968 10.3188 393.148 10.2892 393.359 10.2554C393.575 10.2215 393.838 10.2046 394.146 10.2046ZM399.625 9.5C399.625 10.1305 399.686 10.6003 399.809 10.9092C399.931 11.2181 400.132 11.3726 400.412 11.3726C400.97 11.3726 401.25 10.7484 401.25 9.5C401.25 8.25163 400.97 7.62744 400.412 7.62744C400.132 7.62744 399.931 7.7819 399.809 8.09082C399.686 8.39974 399.625 8.86947 399.625 9.5ZM402.481 9.4873C402.481 10.4606 402.305 11.1927 401.954 11.6836C401.607 12.1702 401.093 12.4136 400.412 12.4136C399.768 12.4136 399.269 12.1618 398.914 11.6582C398.562 11.1504 398.387 10.4268 398.387 9.4873C398.387 7.55339 399.062 6.58643 400.412 6.58643C401.076 6.58643 401.586 6.83822 401.941 7.3418C402.301 7.84115 402.481 8.55632 402.481 9.4873ZM405.667 13.207C405.667 13.8376 405.729 14.3094 405.852 14.6226C405.979 14.9357 406.182 15.0923 406.461 15.0923C407.015 15.0923 407.292 14.4639 407.292 13.207C407.292 11.9671 407.015 11.3472 406.461 11.3472C406.182 11.3472 405.979 11.4995 405.852 11.8042C405.729 12.1089 405.667 12.5765 405.667 13.207ZM408.524 13.207C408.524 14.1803 408.348 14.9103 407.997 15.397C407.646 15.8836 407.134 16.127 406.461 16.127C405.818 16.127 405.318 15.8773 404.963 15.3779C404.607 14.8743 404.43 14.1507 404.43 13.207C404.43 11.2731 405.107 10.3062 406.461 10.3062C407.113 10.3062 407.618 10.5558 407.978 11.0552C408.342 11.5545 408.524 12.2718 408.524 13.207ZM406.639 6.71973L401.491 16H400.259L405.407 6.71973H406.639Z" fill="white"/>
</svg>
