<svg width="113" height="112" viewBox="0 0 113 112" fill="none" xmlns="http://www.w3.org/2000/svg">
<path d="M48.501 64H39.791V62.4355L43.1045 59.1045C44.083 58.1025 44.7305 57.3936 45.0469 56.9775C45.3691 56.5557 45.6035 56.1602 45.75 55.791C45.8965 55.4219 45.9697 55.0264 45.9697 54.6045C45.9697 54.0244 45.7939 53.5674 45.4424 53.2334C45.0967 52.8994 44.6162 52.7324 44.001 52.7324C43.5088 52.7324 43.0312 52.8232 42.5684 53.0049C42.1113 53.1865 41.5811 53.5146 40.9775 53.9893L39.8613 52.627C40.5762 52.0234 41.2705 51.5957 41.9443 51.3438C42.6182 51.0918 43.3359 50.9658 44.0977 50.9658C45.293 50.9658 46.251 51.2793 46.9717 51.9062C47.6924 52.5273 48.0527 53.3652 48.0527 54.4199C48.0527 55 47.9473 55.5508 47.7363 56.0723C47.5312 56.5938 47.2119 57.1328 46.7783 57.6895C46.3506 58.2402 45.6357 58.9873 44.6338 59.9307L42.4014 62.0928V62.1807H48.501V64ZM54.4336 55.9756C55.7285 55.9756 56.7539 56.3184 57.5098 57.0039C58.2656 57.6895 58.6436 58.624 58.6436 59.8076C58.6436 61.1787 58.2129 62.251 57.3516 63.0244C56.4961 63.792 55.2773 64.1758 53.6953 64.1758C52.2598 64.1758 51.1318 63.9443 50.3115 63.4814V61.6094C50.7861 61.8789 51.3311 62.0869 51.9463 62.2334C52.5615 62.3799 53.1328 62.4531 53.6602 62.4531C54.5918 62.4531 55.3008 62.2451 55.7871 61.8291C56.2734 61.4131 56.5166 60.8037 56.5166 60.001C56.5166 58.4658 55.5381 57.6982 53.5811 57.6982C53.3057 57.6982 52.9658 57.7275 52.5615 57.7861C52.1572 57.8389 51.8027 57.9004 51.498 57.9707L50.5752 57.4258L51.0674 51.1504H57.7471V52.9873H52.8867L52.5967 56.1689C52.8018 56.1338 53.0508 56.0928 53.3438 56.0459C53.6426 55.999 54.0059 55.9756 54.4336 55.9756ZM62.0186 55C62.0186 55.873 62.1035 56.5234 62.2734 56.9512C62.4434 57.3789 62.7217 57.5928 63.1084 57.5928C63.8818 57.5928 64.2686 56.7285 64.2686 55C64.2686 53.2715 63.8818 52.4072 63.1084 52.4072C62.7217 52.4072 62.4434 52.6211 62.2734 53.0488C62.1035 53.4766 62.0186 54.127 62.0186 55ZM65.9736 54.9824C65.9736 56.3301 65.7305 57.3438 65.2441 58.0234C64.7637 58.6973 64.0518 59.0342 63.1084 59.0342C62.2178 59.0342 61.5264 58.6855 61.0342 57.9883C60.5479 57.2852 60.3047 56.2832 60.3047 54.9824C60.3047 52.3047 61.2393 50.9658 63.1084 50.9658C64.0283 50.9658 64.7344 51.3145 65.2266 52.0117C65.7246 52.7031 65.9736 53.6934 65.9736 54.9824ZM70.3857 60.1328C70.3857 61.0059 70.4707 61.6592 70.6406 62.0928C70.8164 62.5264 71.0977 62.7432 71.4844 62.7432C72.252 62.7432 72.6357 61.873 72.6357 60.1328C72.6357 58.416 72.252 57.5576 71.4844 57.5576C71.0977 57.5576 70.8164 57.7686 70.6406 58.1904C70.4707 58.6123 70.3857 59.2598 70.3857 60.1328ZM74.3408 60.1328C74.3408 61.4805 74.0977 62.4912 73.6113 63.165C73.125 63.8389 72.416 64.1758 71.4844 64.1758C70.5938 64.1758 69.9023 63.8301 69.4102 63.1387C68.918 62.4414 68.6719 61.4395 68.6719 60.1328C68.6719 57.4551 69.6094 56.1162 71.4844 56.1162C72.3867 56.1162 73.0869 56.4619 73.585 57.1533C74.0889 57.8447 74.3408 58.8379 74.3408 60.1328ZM71.7305 51.1504L64.6025 64H62.8975L70.0254 51.1504H71.7305Z" fill="#1A1A1A"/>
<circle cx="57" cy="56" r="51" stroke="#E3E3E3" stroke-width="10"/>
<mask id="path-3-inside-1_148_1102" fill="white">
<path d="M86.3638 13.7906C87.6551 11.9955 90.1677 11.5764 91.866 12.9926C96.4739 16.8354 100.441 21.3995 103.609 26.5152C107.481 32.7674 110.084 39.7209 111.269 46.9789C112.453 54.2369 112.197 61.6571 110.514 68.816C109.137 74.6736 106.827 80.2623 103.68 85.3708C102.52 87.2536 100.004 87.6551 98.2094 86.3638C96.4143 85.0725 96.0218 82.5781 97.159 80.6817C99.7044 76.437 101.582 71.817 102.718 66.9834C104.161 60.8482 104.381 54.489 103.365 48.2689C102.35 42.0488 100.12 36.0896 96.8014 30.7314C94.187 26.51 90.9377 22.7269 87.1748 19.5118C85.4935 18.0754 85.0725 15.5857 86.3638 13.7906Z"/>
</mask>
<path d="M86.3638 13.7906C87.6551 11.9955 90.1677 11.5764 91.866 12.9926C96.4739 16.8354 100.441 21.3995 103.609 26.5152C107.481 32.7674 110.084 39.7209 111.269 46.9789C112.453 54.2369 112.197 61.6571 110.514 68.816C109.137 74.6736 106.827 80.2623 103.68 85.3708C102.52 87.2536 100.004 87.6551 98.2094 86.3638C96.4143 85.0725 96.0218 82.5781 97.159 80.6817C99.7044 76.437 101.582 71.817 102.718 66.9834C104.161 60.8482 104.381 54.489 103.365 48.2689C102.35 42.0488 100.12 36.0896 96.8014 30.7314C94.187 26.51 90.9377 22.7269 87.1748 19.5118C85.4935 18.0754 85.0725 15.5857 86.3638 13.7906Z" fill="#0066FF" stroke="#0066FF" stroke-width="16" stroke-linecap="round" stroke-linejoin="bevel" stroke-dasharray="16 32 48 64" mask="url(#path-3-inside-1_148_1102)"/>
</svg>
