<svg width="486" height="20" viewBox="0 0 486 20" fill="none" xmlns="http://www.w3.org/2000/svg">
<rect x="367" width="119" height="20" rx="10" fill="#E4E4E4"/>
<rect width="386" height="20" rx="10" fill="#0066FF"/>
<path d="M374.163 8.02713L378.909 0L368.368 10.7875L372.783 11.9377L368 20L378.53 9.2125L374.163 8.02713Z" fill="#FDBA0E"/>
<path d="M341.625 16L345.294 8.04639H340.47V6.73242H346.887V7.77344L343.237 16H341.625ZM354.289 11.3599C354.289 12.9722 354.028 14.1698 353.508 14.9526C352.992 15.7355 352.2 16.127 351.134 16.127C350.101 16.127 349.318 15.7228 348.785 14.9146C348.252 14.1063 347.985 12.9214 347.985 11.3599C347.985 9.72217 348.243 8.51611 348.76 7.7417C349.28 6.96305 350.072 6.57373 351.134 6.57373C352.171 6.57373 352.956 6.97998 353.489 7.79248C354.022 8.60498 354.289 9.79411 354.289 11.3599ZM349.496 11.3599C349.496 12.6252 349.625 13.5286 349.883 14.0703C350.146 14.612 350.562 14.8828 351.134 14.8828C351.705 14.8828 352.122 14.6077 352.384 14.0576C352.651 13.5075 352.784 12.6082 352.784 11.3599C352.784 10.1157 352.651 9.21647 352.384 8.66211C352.122 8.10352 351.705 7.82422 351.134 7.82422C350.562 7.82422 350.146 8.09717 349.883 8.64307C349.625 9.18896 349.496 10.0946 349.496 11.3599ZM356.625 9.5C356.625 10.1305 356.686 10.6003 356.809 10.9092C356.931 11.2181 357.132 11.3726 357.412 11.3726C357.97 11.3726 358.25 10.7484 358.25 9.5C358.25 8.25163 357.97 7.62744 357.412 7.62744C357.132 7.62744 356.931 7.7819 356.809 8.09082C356.686 8.39974 356.625 8.86947 356.625 9.5ZM359.481 9.4873C359.481 10.4606 359.305 11.1927 358.954 11.6836C358.607 12.1702 358.093 12.4136 357.412 12.4136C356.768 12.4136 356.269 12.1618 355.914 11.6582C355.562 11.1504 355.387 10.4268 355.387 9.4873C355.387 7.55339 356.062 6.58643 357.412 6.58643C358.076 6.58643 358.586 6.83822 358.941 7.3418C359.301 7.84115 359.481 8.55632 359.481 9.4873ZM362.667 13.207C362.667 13.8376 362.729 14.3094 362.852 14.6226C362.979 14.9357 363.182 15.0923 363.461 15.0923C364.015 15.0923 364.292 14.4639 364.292 13.207C364.292 11.9671 364.015 11.3472 363.461 11.3472C363.182 11.3472 362.979 11.4995 362.852 11.8042C362.729 12.1089 362.667 12.5765 362.667 13.207ZM365.524 13.207C365.524 14.1803 365.348 14.9103 364.997 15.397C364.646 15.8836 364.134 16.127 363.461 16.127C362.818 16.127 362.318 15.8773 361.963 15.3779C361.607 14.8743 361.43 14.1507 361.43 13.207C361.43 11.2731 362.107 10.3062 363.461 10.3062C364.113 10.3062 364.618 10.5558 364.978 11.0552C365.342 11.5545 365.524 12.2718 365.524 13.207ZM363.639 6.71973L358.491 16H357.259L362.407 6.71973H363.639Z" fill="white"/>
</svg>
