<svg width="112" height="112" viewBox="0 0 112 112" fill="none" xmlns="http://www.w3.org/2000/svg">
<path d="M48.4834 56.6348C48.4834 59.166 47.9736 61.0557 46.9541 62.3037C45.9346 63.5518 44.3994 64.1758 42.3486 64.1758C41.5693 64.1758 41.0098 64.1289 40.6699 64.0352V62.3037C41.1914 62.4502 41.7158 62.5234 42.2432 62.5234C43.6377 62.5234 44.6777 62.1484 45.3633 61.3984C46.0488 60.6484 46.4238 59.4707 46.4883 57.8652H46.3828C46.0371 58.3926 45.6182 58.7734 45.126 59.0078C44.6396 59.2422 44.0684 59.3594 43.4121 59.3594C42.2754 59.3594 41.3818 59.0049 40.7314 58.2959C40.0811 57.5869 39.7559 56.6143 39.7559 55.3779C39.7559 54.0361 40.1309 52.9697 40.8809 52.1787C41.6367 51.3818 42.665 50.9834 43.9658 50.9834C44.8799 50.9834 45.6768 51.2061 46.3564 51.6514C47.0361 52.0967 47.5605 52.7441 47.9297 53.5938C48.2988 54.4375 48.4834 55.4512 48.4834 56.6348ZM44.001 52.6973C43.2861 52.6973 42.7383 52.9316 42.3574 53.4004C41.9766 53.8633 41.7861 54.5166 41.7861 55.3604C41.7861 56.0928 41.9619 56.6699 42.3135 57.0918C42.6709 57.5078 43.21 57.7158 43.9307 57.7158C44.6279 57.7158 45.2139 57.5078 45.6885 57.0918C46.1631 56.6758 46.4004 56.1895 46.4004 55.6328C46.4004 55.1113 46.2979 54.625 46.0928 54.1738C45.8936 53.7168 45.6123 53.3564 45.249 53.0928C44.8857 52.8291 44.4697 52.6973 44.001 52.6973ZM58.7842 57.5752C58.7842 59.8076 58.4238 61.4658 57.7031 62.5498C56.9883 63.6338 55.8926 64.1758 54.416 64.1758C52.9863 64.1758 51.9023 63.6162 51.1641 62.4971C50.4258 61.3779 50.0566 59.7373 50.0566 57.5752C50.0566 55.3076 50.4141 53.6377 51.1289 52.5654C51.8496 51.4873 52.9453 50.9482 54.416 50.9482C55.8516 50.9482 56.9385 51.5107 57.6768 52.6357C58.415 53.7607 58.7842 55.4072 58.7842 57.5752ZM52.1484 57.5752C52.1484 59.3271 52.3271 60.5781 52.6846 61.3281C53.0479 62.0781 53.625 62.4531 54.416 62.4531C55.207 62.4531 55.7842 62.0723 56.1475 61.3105C56.5166 60.5488 56.7012 59.3037 56.7012 57.5752C56.7012 55.8525 56.5166 54.6074 56.1475 53.8398C55.7842 53.0664 55.207 52.6797 54.416 52.6797C53.625 52.6797 53.0479 53.0576 52.6846 53.8135C52.3271 54.5693 52.1484 55.8232 52.1484 57.5752ZM62.0186 55C62.0186 55.873 62.1035 56.5234 62.2734 56.9512C62.4434 57.3789 62.7217 57.5928 63.1084 57.5928C63.8818 57.5928 64.2686 56.7285 64.2686 55C64.2686 53.2715 63.8818 52.4072 63.1084 52.4072C62.7217 52.4072 62.4434 52.6211 62.2734 53.0488C62.1035 53.4766 62.0186 54.127 62.0186 55ZM65.9736 54.9824C65.9736 56.3301 65.7305 57.3438 65.2441 58.0234C64.7637 58.6973 64.0518 59.0342 63.1084 59.0342C62.2178 59.0342 61.5264 58.6855 61.0342 57.9883C60.5479 57.2852 60.3047 56.2832 60.3047 54.9824C60.3047 52.3047 61.2393 50.9658 63.1084 50.9658C64.0283 50.9658 64.7344 51.3145 65.2266 52.0117C65.7246 52.7031 65.9736 53.6934 65.9736 54.9824ZM70.3857 60.1328C70.3857 61.0059 70.4707 61.6592 70.6406 62.0928C70.8164 62.5264 71.0977 62.7432 71.4844 62.7432C72.252 62.7432 72.6357 61.873 72.6357 60.1328C72.6357 58.416 72.252 57.5576 71.4844 57.5576C71.0977 57.5576 70.8164 57.7686 70.6406 58.1904C70.4707 58.6123 70.3857 59.2598 70.3857 60.1328ZM74.3408 60.1328C74.3408 61.4805 74.0977 62.4912 73.6113 63.165C73.125 63.8389 72.416 64.1758 71.4844 64.1758C70.5938 64.1758 69.9023 63.8301 69.4102 63.1387C68.918 62.4414 68.6719 61.4395 68.6719 60.1328C68.6719 57.4551 69.6094 56.1162 71.4844 56.1162C72.3867 56.1162 73.0869 56.4619 73.585 57.1533C74.0889 57.8447 74.3408 58.8379 74.3408 60.1328ZM71.7305 51.1504L64.6025 64H62.8975L70.0254 51.1504H71.7305Z" fill="#1A1A1A"/>
<circle cx="56" cy="56" r="51" stroke="#E3E3E3" stroke-width="10"/>
<mask id="path-3-inside-1_148_1109" fill="white">
<path d="M85.8872 14.4532C87.4417 12.2922 90.4698 11.7855 92.4893 13.52C101.826 21.5399 108.298 32.4492 110.825 44.5868C113.68 58.3035 111.29 72.5924 104.126 84.6332C96.9625 96.674 85.5454 105.592 72.1282 109.627C58.7111 113.662 44.2688 112.522 31.6516 106.43C19.0345 100.338 9.15924 89.7379 3.97486 76.7216C-1.20953 63.7053 -1.32637 49.2185 3.6474 36.1202C8.62117 23.022 18.3242 12.264 30.8414 5.96955C41.9177 0.399695 54.4854 -1.31712 66.5724 1.00694C69.1866 1.50959 70.6731 4.19596 69.9476 6.75728C69.2221 9.31859 66.5589 10.7802 63.9362 10.3244C54.1818 8.6294 44.0928 10.0964 35.1724 14.5821C24.81 19.793 16.7773 28.6991 12.6597 39.5425C8.54218 50.3859 8.63891 62.3789 12.9308 73.1544C17.2227 83.93 25.398 92.7053 35.8431 97.7484C46.2883 102.792 58.2444 103.736 69.3518 100.395C80.4592 97.055 89.9109 89.6721 95.8415 79.7041C101.772 69.736 103.751 57.907 101.387 46.5516C99.3518 36.7763 94.2261 27.9635 86.8323 21.3791C84.8443 19.6087 84.3326 16.6142 85.8872 14.4532Z"/>
</mask>
<path d="M85.8872 14.4532C87.4417 12.2922 90.4698 11.7855 92.4893 13.52C101.826 21.5399 108.298 32.4492 110.825 44.5868C113.68 58.3035 111.29 72.5924 104.126 84.6332C96.9625 96.674 85.5454 105.592 72.1282 109.627C58.7111 113.662 44.2688 112.522 31.6516 106.43C19.0345 100.338 9.15924 89.7379 3.97486 76.7216C-1.20953 63.7053 -1.32637 49.2185 3.6474 36.1202C8.62117 23.022 18.3242 12.264 30.8414 5.96955C41.9177 0.399695 54.4854 -1.31712 66.5724 1.00694C69.1866 1.50959 70.6731 4.19596 69.9476 6.75728C69.2221 9.31859 66.5589 10.7802 63.9362 10.3244C54.1818 8.6294 44.0928 10.0964 35.1724 14.5821C24.81 19.793 16.7773 28.6991 12.6597 39.5425C8.54218 50.3859 8.63891 62.3789 12.9308 73.1544C17.2227 83.93 25.398 92.7053 35.8431 97.7484C46.2883 102.792 58.2444 103.736 69.3518 100.395C80.4592 97.055 89.9109 89.6721 95.8415 79.7041C101.772 69.736 103.751 57.907 101.387 46.5516C99.3518 36.7763 94.2261 27.9635 86.8323 21.3791C84.8443 19.6087 84.3326 16.6142 85.8872 14.4532Z" fill="#0066FF" stroke="#0066FF" stroke-width="16" stroke-linecap="round" stroke-linejoin="bevel" stroke-dasharray="16 32 48 64" mask="url(#path-3-inside-1_148_1109)"/>
</svg>
