<svg width="486" height="20" viewBox="0 0 486 20" fill="none" xmlns="http://www.w3.org/2000/svg">
<rect x="386" width="100" height="20" rx="10" fill="#E4E4E4"/>
<rect width="412" height="20" rx="10" fill="#0066FF"/>
<path d="M399.163 8.02713L403.909 0L393.368 10.7875L397.783 11.9377L393 20L403.53 9.2125L399.163 8.02713Z" fill="#FDBA0E"/>
<path d="M369.707 6.59912C370.587 6.59912 371.283 6.80225 371.795 7.2085C372.307 7.61051 372.563 8.15007 372.563 8.82715C372.563 9.7793 371.992 10.5368 370.85 11.0996C371.577 11.4635 372.094 11.8465 372.398 12.2485C372.707 12.6506 372.862 13.0991 372.862 13.5942C372.862 14.3602 372.58 14.9738 372.018 15.4351C371.455 15.8963 370.693 16.127 369.732 16.127C368.725 16.127 367.944 15.9111 367.39 15.4795C366.836 15.0479 366.559 14.4364 366.559 13.645C366.559 13.1287 366.702 12.6654 366.99 12.2549C367.282 11.8402 367.758 11.472 368.418 11.1504C367.851 10.8118 367.447 10.4543 367.206 10.0776C366.965 9.70101 366.844 9.27783 366.844 8.80811C366.844 8.13525 367.109 7.59993 367.638 7.20215C368.167 6.80013 368.856 6.59912 369.707 6.59912ZM367.987 13.5942C367.987 14.0343 368.141 14.3771 368.45 14.6226C368.759 14.8638 369.178 14.9844 369.707 14.9844C370.253 14.9844 370.676 14.8595 370.977 14.6099C371.281 14.356 371.434 14.0132 371.434 13.5815C371.434 13.2388 371.294 12.9256 371.015 12.6421C370.735 12.3586 370.312 12.0962 369.745 11.855L369.561 11.7725C369.002 12.0179 368.6 12.2887 368.355 12.585C368.11 12.877 367.987 13.2134 367.987 13.5942ZM369.694 7.74805C369.271 7.74805 368.931 7.85384 368.672 8.06543C368.414 8.27279 368.285 8.55632 368.285 8.91602C368.285 9.13607 368.332 9.33285 368.425 9.50635C368.518 9.67985 368.653 9.83854 368.831 9.98242C369.009 10.1221 369.309 10.2913 369.732 10.4902C370.24 10.266 370.598 10.0311 370.805 9.78564C371.017 9.53597 371.123 9.24609 371.123 8.91602C371.123 8.55632 370.991 8.27279 370.729 8.06543C370.471 7.85384 370.126 7.74805 369.694 7.74805ZM380.289 11.3599C380.289 12.9722 380.028 14.1698 379.508 14.9526C378.992 15.7355 378.2 16.127 377.134 16.127C376.101 16.127 375.318 15.7228 374.785 14.9146C374.252 14.1063 373.985 12.9214 373.985 11.3599C373.985 9.72217 374.243 8.51611 374.76 7.7417C375.28 6.96305 376.072 6.57373 377.134 6.57373C378.171 6.57373 378.956 6.97998 379.489 7.79248C380.022 8.60498 380.289 9.79411 380.289 11.3599ZM375.496 11.3599C375.496 12.6252 375.625 13.5286 375.883 14.0703C376.146 14.612 376.562 14.8828 377.134 14.8828C377.705 14.8828 378.122 14.6077 378.384 14.0576C378.651 13.5075 378.784 12.6082 378.784 11.3599C378.784 10.1157 378.651 9.21647 378.384 8.66211C378.122 8.10352 377.705 7.82422 377.134 7.82422C376.562 7.82422 376.146 8.09717 375.883 8.64307C375.625 9.18896 375.496 10.0946 375.496 11.3599ZM382.625 9.5C382.625 10.1305 382.686 10.6003 382.809 10.9092C382.931 11.2181 383.132 11.3726 383.412 11.3726C383.97 11.3726 384.25 10.7484 384.25 9.5C384.25 8.25163 383.97 7.62744 383.412 7.62744C383.132 7.62744 382.931 7.7819 382.809 8.09082C382.686 8.39974 382.625 8.86947 382.625 9.5ZM385.481 9.4873C385.481 10.4606 385.305 11.1927 384.954 11.6836C384.607 12.1702 384.093 12.4136 383.412 12.4136C382.768 12.4136 382.269 12.1618 381.914 11.6582C381.562 11.1504 381.387 10.4268 381.387 9.4873C381.387 7.55339 382.062 6.58643 383.412 6.58643C384.076 6.58643 384.586 6.83822 384.941 7.3418C385.301 7.84115 385.481 8.55632 385.481 9.4873ZM388.667 13.207C388.667 13.8376 388.729 14.3094 388.852 14.6226C388.979 14.9357 389.182 15.0923 389.461 15.0923C390.015 15.0923 390.292 14.4639 390.292 13.207C390.292 11.9671 390.015 11.3472 389.461 11.3472C389.182 11.3472 388.979 11.4995 388.852 11.8042C388.729 12.1089 388.667 12.5765 388.667 13.207ZM391.524 13.207C391.524 14.1803 391.348 14.9103 390.997 15.397C390.646 15.8836 390.134 16.127 389.461 16.127C388.818 16.127 388.318 15.8773 387.963 15.3779C387.607 14.8743 387.43 14.1507 387.43 13.207C387.43 11.2731 388.107 10.3062 389.461 10.3062C390.113 10.3062 390.618 10.5558 390.978 11.0552C391.342 11.5545 391.524 12.2718 391.524 13.207ZM389.639 6.71973L384.491 16H383.259L388.407 6.71973H389.639Z" fill="white"/>
</svg>
