<svg width="486" height="20" viewBox="0 0 486 20" fill="none" xmlns="http://www.w3.org/2000/svg">
<rect x="386" width="100" height="20" rx="10" fill="#E4E4E4"/>
<rect width="403" height="20" rx="10" fill="#0066FF"/>
<path d="M390.163 8.02713L394.909 0L384.368 10.7875L388.783 11.9377L384 20L394.53 9.2125L390.163 8.02713Z" fill="#FDBA0E"/>
<path d="M357.625 16L361.294 8.04639H356.47V6.73242H362.887V7.77344L359.237 16H357.625ZM367.146 10.2046C368.082 10.2046 368.822 10.4521 369.368 10.9473C369.914 11.4424 370.187 12.1174 370.187 12.9722C370.187 13.9624 369.876 14.7368 369.254 15.2954C368.636 15.8498 367.756 16.127 366.613 16.127C365.576 16.127 364.762 15.9598 364.169 15.6255V14.2734C364.512 14.4681 364.906 14.6183 365.35 14.7241C365.794 14.8299 366.207 14.8828 366.588 14.8828C367.261 14.8828 367.773 14.7326 368.124 14.4321C368.475 14.1317 368.651 13.6916 368.651 13.1118C368.651 12.0031 367.944 11.4487 366.531 11.4487C366.332 11.4487 366.086 11.4699 365.794 11.5122C365.502 11.5503 365.246 11.5947 365.026 11.6455L364.36 11.252L364.715 6.71973H369.54V8.04639H366.029L365.82 10.3442C365.968 10.3188 366.148 10.2892 366.359 10.2554C366.575 10.2215 366.838 10.2046 367.146 10.2046ZM372.625 9.5C372.625 10.1305 372.686 10.6003 372.809 10.9092C372.931 11.2181 373.132 11.3726 373.412 11.3726C373.97 11.3726 374.25 10.7484 374.25 9.5C374.25 8.25163 373.97 7.62744 373.412 7.62744C373.132 7.62744 372.931 7.7819 372.809 8.09082C372.686 8.39974 372.625 8.86947 372.625 9.5ZM375.481 9.4873C375.481 10.4606 375.305 11.1927 374.954 11.6836C374.607 12.1702 374.093 12.4136 373.412 12.4136C372.768 12.4136 372.269 12.1618 371.914 11.6582C371.562 11.1504 371.387 10.4268 371.387 9.4873C371.387 7.55339 372.062 6.58643 373.412 6.58643C374.076 6.58643 374.586 6.83822 374.941 7.3418C375.301 7.84115 375.481 8.55632 375.481 9.4873ZM378.667 13.207C378.667 13.8376 378.729 14.3094 378.852 14.6226C378.979 14.9357 379.182 15.0923 379.461 15.0923C380.015 15.0923 380.292 14.4639 380.292 13.207C380.292 11.9671 380.015 11.3472 379.461 11.3472C379.182 11.3472 378.979 11.4995 378.852 11.8042C378.729 12.1089 378.667 12.5765 378.667 13.207ZM381.524 13.207C381.524 14.1803 381.348 14.9103 380.997 15.397C380.646 15.8836 380.134 16.127 379.461 16.127C378.818 16.127 378.318 15.8773 377.963 15.3779C377.607 14.8743 377.43 14.1507 377.43 13.207C377.43 11.2731 378.107 10.3062 379.461 10.3062C380.113 10.3062 380.618 10.5558 380.978 11.0552C381.342 11.5545 381.524 12.2718 381.524 13.207ZM379.639 6.71973L374.491 16H373.259L378.407 6.71973H379.639Z" fill="white"/>
</svg>
