<svg width="34" height="40" viewBox="0 0 34 40" fill="none" xmlns="http://www.w3.org/2000/svg">
<path d="M20.6966 4.56926L22.3937 2.73629C19.0012 1.48526 15.3082 1.29728 11.8062 2.19738C8.30423 3.09748 5.15953 5.04296 2.79077 7.77479C5.21134 5.67973 8.15211 4.27622 11.3033 3.71209C14.4545 3.14796 17.6996 3.44407 20.6966 4.56926Z" fill="#FDBA0E"/>
<path d="M23.7658 3.31219L22.5876 5.41266C24.9773 6.64849 27.0554 8.41036 28.6655 10.5656C30.2756 12.7208 31.3758 15.2132 31.8833 17.8552C32.3907 20.4972 32.2921 23.2199 31.595 25.8183C30.8979 28.4166 29.6203 30.823 27.8586 32.8562C30.0987 30.9161 31.8186 28.4469 32.8617 25.6731C33.9049 22.8992 34.2383 19.9087 33.8316 16.9732C33.425 14.0378 32.2911 11.2505 30.5332 8.86467C28.7753 6.47887 26.449 4.57022 23.7658 3.31219Z" fill="white"/>
<path d="M11.1031 32.5463C8.81385 31.5004 6.79979 29.9355 5.2207 27.9756C3.64161 26.0158 2.54093 23.7149 2.00596 21.2556C1.471 18.7962 1.51646 16.2461 2.13876 13.8074C2.76106 11.3686 3.94306 9.10849 5.59102 7.20618C3.50073 9.0172 1.909 11.3333 0.96747 13.9338C0.0259402 16.5343 -0.234022 19.3326 0.21236 22.062C0.658743 24.7915 1.7966 27.3611 3.51751 29.5262C5.23842 31.6913 7.48506 33.3796 10.0434 34.4304L11.1031 32.5463Z" fill="white"/>
<path d="M17.8299 34.008C16.2456 34.0087 14.6697 33.7772 13.1525 33.321L11.6118 34.9844C14.5937 35.8618 17.765 35.8635 20.7478 34.9894C23.7306 34.1152 26.3994 32.4021 28.436 30.0541C25.4941 32.6095 21.7267 34.014 17.8299 34.008Z" fill="#FDBA0E"/>
<path d="M17.8019 15.6592L26.5765 0L7.08764 21.0441L15.2498 23.2879L6.40649 39.0158L25.8764 17.9716L17.8019 15.6592Z" fill="#FDBA0E"/>
</svg>
